<?xml version="1.0" standalone="no"?>
<!DOCTYPE svg PUBLIC "-//W3C//DTD SVG 20010904//EN"
 "http://www.w3.org/TR/2001/REC-SVG-20010904/DTD/svg10.dtd">
<svg version="1.0" xmlns="http://www.w3.org/2000/svg"
 width="125.000000pt" height="125.000000pt" viewBox="0 0 125.000000 125.000000"
 preserveAspectRatio="xMidYMid meet">
<metadata>
Created by potrace 1.12, written by Peter Selinger 2001-2015
</metadata>
<g transform="translate(0.000000,125.000000) scale(0.100000,-0.100000)"
fill="#000000" stroke="none">
<path d="M757 782 c-10 -10 -17 -26 -17 -36 0 -32 -40 -96 -60 -96 -24 0 -35
16 -17 27 8 4 21 20 30 34 14 21 15 28 3 44 -25 34 -45 12 -81 -88 -9 -26 -21
-45 -26 -41 -14 8 -11 92 4 97 10 4 10 6 0 6 -8 1 -13 14 -13 32 0 17 -4 28
-10 24 -5 -3 -10 -19 -10 -36 0 -16 -5 -29 -12 -29 -8 0 -9 -3 -3 -8 6 -4 10
-21 11 -38 2 -66 34 -88 56 -39 11 24 12 24 30 8 17 -16 22 -16 45 -3 15 8 35
32 46 53 21 41 25 43 52 23 16 -12 17 -16 6 -30 -21 -25 3 -19 27 7 22 23 48
84 40 93 -3 2 -10 -14 -17 -37 -12 -38 -14 -40 -29 -25 -9 10 -26 23 -37 31
-16 11 -18 16 -7 27 11 11 14 10 22 -2 5 -8 12 -11 15 -8 10 9 -4 28 -19 28
-7 0 -20 -8 -29 -18z"/>
<path d="M453 695 c-11 -8 -24 -27 -27 -42 -19 -82 -49 -112 -45 -45 3 54 1
62 -16 62 -9 0 -22 -15 -30 -32 l-14 -33 -1 28 c0 28 -14 37 -22 15 -3 -7 -6
-37 -7 -65 -2 -43 1 -53 13 -53 10 0 16 9 16 24 0 13 8 41 17 62 l17 39 6 -50
c6 -58 29 -72 48 -30 11 24 14 25 28 11 21 -21 41 -20 61 4 10 11 23 20 29 20
12 0 24 22 24 43 0 6 -7 2 -15 -9 -14 -18 -14 -18 -15 8 0 25 -22 58 -38 58
-4 0 -17 -7 -29 -15z"/>
</g>
</svg>
